# xmcd
#
# Track frame offsets:
#	150
#	27171
#	47288
#	66699
#	92439
#	120640
#	140528
#	168750
#	186272
#	211835
#
# Disc length: 3187 seconds
#
# Revision: 1
# Processed by: cddbd v1.5.2PL0 Copyright (c) Steve Scherf et al.
# Submitted via: EZCDAudioConverter 8.0.2.1
#
DISCID=830c710a
DTITLE=Đặng Thế Luân - Ngang Trái
DYEAR=2011
DGENRE=Miscellaneous
TTITLE0=Những đòi hoa sim
TTITLE1=Con đường xưa em đi
TTITLE2=Ngang Trái
TTITLE3=Nhớ người yêu
TTITLE4=Căn nhà màu tím
TTITLE5=Về đâu mái tóc người thương
TTITLE6=Buồn chi em ơi
TTITLE7=Giã từ
TTITLE8=Lời cho kẻ phụ tình
TTITLE9=LK Chuyện giàn thiên lý
EXTD=
EXTT0=
EXTT1=
EXTT2=
EXTT3=
EXTT4=
EXTT5=
EXTT6=
EXTT7=
EXTT8=
EXTT9=
PLAYORDER=
